HIERARCHY
ROOT root
{
	OFFSET	0	13.1	24.9
	CHANNELS 6  Xposition Yposition Zposition Xrotation Yrotation Zrotation
	JOINT spine_1
	{
		OFFSET	0	9.99999	0
		CHANNELS 3  Xrotation Yrotation Zrotation
		JOINT spine_2
		{
			OFFSET	0	112	-10
			CHANNELS 3  Xrotation Yrotation Zrotation
			JOINT spine_3
			{
				OFFSET	0	206.5	19.3
				CHANNELS 3  Xrotation Yrotation Zrotation
				JOINT spine_4
				{
					OFFSET	0	110.4	14.6
					CHANNELS 3  Xrotation Yrotation Zrotation
					JOINT neck_1
					{
						OFFSET	0	71.8	-50.3
						CHANNELS 3  Xrotation Yrotation Zrotation
						JOINT neck_2
						{
							OFFSET	0	86.2	-25.8
							CHANNELS 3  Xrotation Yrotation Zrotation
							JOINT head_ee
							{
								OFFSET	0	179.8	-8.7
								CHANNELS 3  Xrotation Yrotation Zrotation
								End Site
								{
									OFFSET	1	0	0
								}
							}
						}
					}
					JOINT left_clavicle
					{
						OFFSET	-43.2	22.4	-70.8
						CHANNELS 3  Xrotation Yrotation Zrotation
						JOINT left_shoulder
						{
							OFFSET	-93.9	-5.79999	48.7
							CHANNELS 3  Xrotation Yrotation Zrotation
							JOINT left_elbow
							{
								OFFSET	-291.4	-30.8	15.2
								CHANNELS 3  Xrotation Yrotation Zrotation
								JOINT left_lowarm_twist
								{
									OFFSET	-110.7	-3.89999	13.6
									CHANNELS 3  Xrotation Yrotation Zrotation
									JOINT left_hand
									{
										OFFSET	-110.7	-3.89999	13.6
										CHANNELS 3  Xrotation Yrotation Zrotation
										JOINT left_ee
										{
											OFFSET	-80.8	-5.10001	12.1
											CHANNELS 3  Xrotation Yrotation Zrotation
											End Site
											{
												OFFSET	1	0	0
											}
										}
									}
								}
							}
						}
					}
					JOINT right_clavicle
					{
						OFFSET	43.2	22.4	-70.8
						CHANNELS 3  Xrotation Yrotation Zrotation
						JOINT right_shoulder
						{
							OFFSET	93.9	-5.79999	48.7
							CHANNELS 3  Xrotation Yrotation Zrotation
							JOINT right_elbow
							{
								OFFSET	291.4	-30.8	15.2
								CHANNELS 3  Xrotation Yrotation Zrotation
								JOINT right_lowarm_twist
								{
									OFFSET	110.7	-3.89999	13.6
									CHANNELS 3  Xrotation Yrotation Zrotation
									JOINT right_hand
									{
										OFFSET	110.7	-3.89999	13.6
										CHANNELS 3  Xrotation Yrotation Zrotation
										JOINT right_ee
										{
											OFFSET	80.8	-5.10001	12.1
											CHANNELS 3  Xrotation Yrotation Zrotation
											End Site
											{
												OFFSET	1	0	0
											}
										}
									}
								}
							}
						}
					}
				}
			}
		}
	}
	JOINT left_hip
	{
		OFFSET	-82.8	-127.5	0.300001
		CHANNELS 3  Xrotation Yrotation Zrotation
		JOINT left_knee
		{
			OFFSET	-28.2	-396.7	2.2
			CHANNELS 3  Xrotation Yrotation Zrotation
			JOINT left_ankle
			{
				OFFSET	-11.7	-411.3	35.4
				CHANNELS 3  Xrotation Yrotation Zrotation
				JOINT left_toes
				{
					OFFSET	0	-60	-88.6
					CHANNELS 3  Xrotation Yrotation Zrotation
					JOINT left_foot_ee
					{
						OFFSET	-22.5	-16.5	-42.2
						CHANNELS 3  Xrotation Yrotation Zrotation
						End Site
						{
							OFFSET	1	0	0
						}
					}
				}
			}
		}
	}
	JOINT right_hip
	{
		OFFSET	82.8	-127.5	0.300001
		CHANNELS 3  Xrotation Yrotation Zrotation
		JOINT right_knee
		{
			OFFSET	28.2	-396.7	2.2
			CHANNELS 3  Xrotation Yrotation Zrotation
			JOINT right_ankle
			{
				OFFSET	11.7	-411.3	35.4
				CHANNELS 3  Xrotation Yrotation Zrotation
				JOINT right_toes
				{
					OFFSET	0	-60	-88.6
					CHANNELS 3  Xrotation Yrotation Zrotation
					JOINT right_foot_ee
					{
						OFFSET	22.5	-16.5	-42.2
						CHANNELS 3  Xrotation Yrotation Zrotation
						End Site
						{
							OFFSET	1	0	0
						}
					}
				}
			}
		}
	}
}
MOTION
Frames: 10
Frame Time: 0.02
444.631486906 714.962 -1232.15592575 173.329015656 -32.8452340264 172.484831182 -3.07583 0.717936 1.73695 -3.07436 0.605972 1.7791 -3.05269 0.118945 1.87567 -3.05736 0.413629 1.83337 0.744206 7.99775 1.39821 0.871154 13.0302 2.27951 -0.0 0.0 -0.0 7.15289 -16.2797 13.3822 0.196937 6.34353 62.538 0.632731 -17.403 0.0968393 12.8296 0.272466 -1.61281 0.812827 -6.80025 2.60183 -0.0 0.0 -0.0 13.1201 28.5024 -25.6353 -11.2485 3.18536 -63.4518 0.552104 15.2963 -0.0741391 4.25334 -0.130322 0.527531 -1.69058 7.86178 14.9168 0.0 0.0 0.0 -3.86363 33.6507 4.50668 -15.3528 0.322034 2.32702 34.4958 -6.88546 -4.45433 40.1075 -0.0 -0.0 -0.0 0.0 -0.0 13.9323 19.2999 3.51472 -34.4296 0.150924 -5.20301 18.4076 -26.0258 2.67305 27.4537 -0.0 -0.0 0.0 0.0 0.0 
448.182364158 717.448 -1232.33560434 172.686754387 -33.5748798783 172.348734566 -3.30701 0.734464 1.79327 -3.30544 0.618885 1.83636 -3.28244 0.10866 1.93476 -3.28743 0.4128 1.89334 0.632214 8.09219 1.60772 0.7574 13.0385 2.52459 -0.0 0.0 -0.0 6.96689 -16.8069 12.9438 0.20683 6.04939 61.8519 0.643928 -17.6919 0.100215 13.3183 0.275655 -1.67515 0.838343 -7.05031 2.66826 -0.0 0.0 -0.0 13.5449 27.8871 -26.6989 -11.1751 3.53608 -64.0757 0.543966 15.0812 -0.072007 4.40574 -0.134261 0.546601 -1.69734 7.79514 14.9345 0.0 0.0 0.0 -4.16822 34.2198 5.59745 -15.6404 0.322078 2.37115 34.5107 -7.0772 -4.45911 40.0582 -0.0 -0.0 -0.0 0.0 -0.0 15.0566 19.152 1.88106 -35.117 0.185688 -5.30273 19.3442 -26.1409 2.80054 27.6616 -0.0 -0.0 0.0 0.0 0.0 
450.804050653 719.337 -1235.56567164 173.073078854 -34.3217747219 172.356088158 -3.3149 0.743888 1.96192 -3.31297 0.617564 2.00526 -3.28765 0.0623082 2.09724 -3.29357 0.392675 2.06111 2.17826 8.12519 1.14001 2.33378 13.2992 1.89282 -0.0 0.0 -0.0 7.09783 -17.1072 13.2073 0.000247719 5.09453 61.4773 0.670955 -18.3854 0.108584 13.6905 0.277728 -1.72264 0.950063 -7.29254 3.32062 -0.0 0.0 -0.0 13.5835 27.4288 -26.8497 -11.3273 3.75797 -64.1982 0.535935 14.8684 -0.0699319 4.69586 -0.141621 0.582929 -1.69504 7.52682 14.7996 0.0 0.0 0.0 -6.96418 33.0873 7.10071 -16.0843 0.321712 2.43925 33.1107 -7.04323 -4.31853 40.1917 -0.0 -0.0 -0.0 0.0 -0.0 19.8009 18.8364 -0.580822 -37.8247 0.33421 -5.69134 19.8123 -26.2515 2.86479 27.8227 -0.0 -0.0 0.0 0.0 0.0 
471.917304799 722.948 -1225.01053181 173.02888127 -33.8787673042 172.020732188 -3.36846 0.744353 2.15027 -3.36609 0.606052 2.19325 -3.3385 -0.00080136 2.2754 -3.34554 0.358474 2.247 3.8721 8.16195 0.616243 4.06675 13.6053 1.17489 -0.0 0.0 -0.0 7.06047 -17.4338 13.1035 -0.373318 3.95113 61.2692 0.716052 -19.5302 0.123236 14.1361 0.279804 -1.77952 1.09927 -7.64079 4.18201 -0.0 0.0 -0.0 13.3361 26.3333 -26.4152 -12.3804 3.76296 -64.611 0.511994 14.2319 -0.0639173 5.05759 -0.15054 0.628277 -1.69412 7.13011 14.6171 0.0 0.0 0.0 -10.1085 31.6754 8.81459 -16.222 0.321491 2.46038 31.0154 -6.89022 -4.09872 40.0887 -0.0 -0.0 -0.0 0.0 -0.0 24.9195 18.3961 -3.19774 -41.7108 0.579177 -6.23609 20.3491 -26.2276 2.93552 28.0722 -0.0 -0.0 0.0 0.0 0.0 
478.780970318 720.688 -1224.88274103 172.821102972 -31.8851730956 172.474309485 -3.4112 0.654953 2.19269 -3.40868 0.514135 2.2299 -3.38422 -0.101065 2.28614 -3.39142 0.261161 2.27343 4.31537 8.15946 0.477309 4.52071 13.6677 0.981838 -0.0 0.0 -0.0 6.72447 -18.0193 12.3315 -0.0232286 3.37647 60.4431 0.74322 -20.2122 0.132471 14.2645 0.28032 -1.79591 1.14421 -7.75112 4.43931 -0.0 0.0 -0.0 13.1938 25.6562 -26.1657 -12.7834 3.75098 -64.9713 0.50368 14.0099 -0.0618888 5.18042 -0.153503 0.643687 -1.69457 6.99961 14.5623 0.0 0.0 0.0 -10.986 31.2583 9.32487 -16.1892 0.321549 2.45534 30.3815 -6.84743 -4.0305 40.0449 -0.0 -0.0 -0.0 0.0 -0.0 26.4203 18.2125 -4.01929 -42.9104 0.662233 -6.40084 20.4835 -26.1741 2.95232 28.1445 -0.0 -0.0 0.0 0.0 0.0 
491.9604219 718.731 -1221.66582127 171.268893767 -29.2445568528 171.646158435 -4.18504 0.356825 2.42262 -4.1818 0.201992 2.4404 -4.16789 -0.491315 2.39897 -4.1759 -0.106395 2.44643 3.44841 8.1354 0.512336 3.63996 13.6989 1.09044 -0.0 0.0 -0.0 5.24996 -19.8471 8.98996 7.79769 -1.90876 62.6758 1.27863 -32.3485 0.370867 16.0012 0.283688 -2.0177 0.961471 -7.22465 3.42658 -0.0 0.0 -0.0 12.8893 23.4049 -25.7002 -13.9909 3.42803 -65.6269 0.481804 13.4239 -0.0567014 5.36789 -0.157962 0.66722 -1.75259 6.8862 14.9166 0.0 0.0 0.0 -13.5911 30.4369 10.2557 -15.5766 0.322088 2.36136 26.933 -8.20571 -3.67046 39.5508 -0.0 -0.0 -0.0 0.0 -0.0 29.0149 19.3656 -6.07553 -43.6571 0.715669 -6.5025 18.7981 -27.123 2.74388 28.1557 -0.0 -0.0 0.0 0.0 0.0 
491.649316086 718.731 -1223.3909909 171.182996207 -30.2189809105 171.472963357 -4.18504 0.356825 2.42262 -4.1818 0.201992 2.4404 -4.16789 -0.491315 2.39897 -4.1759 -0.106395 2.44643 3.44841 8.1354 0.512336 3.63996 13.6989 1.09044 -0.0 0.0 -0.0 5.24996 -19.8471 8.98996 7.79769 -1.90876 62.6758 1.27863 -32.3485 0.370867 16.0012 0.283688 -2.0177 0.961471 -7.22465 3.42658 -0.0 0.0 -0.0 12.8893 23.4049 -25.7002 -13.9909 3.42803 -65.6269 0.481804 13.4239 -0.0567014 5.36789 -0.157962 0.66722 -1.75259 6.8862 14.9166 0.0 0.0 0.0 -13.5911 30.4369 10.2557 -15.5766 0.322088 2.36136 26.933 -8.20571 -3.67046 39.5508 -0.0 -0.0 -0.0 0.0 -0.0 29.0149 19.3656 -6.07553 -43.6571 0.715669 -6.5025 18.7981 -27.123 2.74388 28.1557 -0.0 -0.0 0.0 0.0 0.0 
491.62602878 717.045 -1220.53289538 170.283303969 -32.0330781433 171.165730172 -4.35082 0.332352 2.43433 -4.34754 0.176823 2.45053 -4.33454 -0.525328 2.40011 -4.34256 -0.139802 2.45292 3.24335 8.12478 0.485201 3.43258 13.7276 1.07634 -0.0 0.0 -0.0 4.48348 -19.8464 7.33455 9.97043 -3.22142 62.4999 1.46639 -35.9927 0.47638 16.4674 0.283448 -2.07724 0.90853 -7.13488 3.10674 -0.0 0.0 -0.0 12.8052 22.6803 -25.574 -14.3826 3.15323 -65.9227 0.472217 13.1662 -0.0544965 5.47649 -0.160509 0.680859 -1.77292 6.80528 15.0224 0.0 0.0 0.0 -13.8672 30.0118 9.86355 -14.6954 0.3211 2.22616 25.9333 -8.65915 -3.56248 39.3858 -0.0 -0.0 -0.0 0.0 -0.0 29.9351 19.768 -6.57554 -43.7108 0.719564 -6.50978 18.2799 -27.3677 2.67779 28.1431 -0.0 -0.0 0.0 0.0 0.0 
498.257518794 714.149 -1211.91868255 169.695822146 -35.6896302921 169.143365828 -4.46612 0.443183 2.6808 -4.46217 0.271762 2.70354 -4.44241 -0.511041 2.6687 -4.45234 -0.0833188 2.71588 3.12235 8.13183 0.435674 3.312 13.7963 1.03139 -0.0 0.0 -0.0 3.71451 -18.074 5.84041 14.1907 -4.80852 60.8939 1.94579 -43.9418 0.785063 16.8876 0.282817 -2.13091 0.854488 -7.5849 2.55044 -0.0 0.0 -0.0 12.6281 21.8818 -25.2346 -15.4871 2.82467 -69.2825 0.369826 10.3817 -0.0335975 5.76529 -0.167159 0.717152 -1.9339 6.46438 15.9967 0.0 0.0 0.0 -14.331 29.4471 8.85826 -11.4934 0.300016 1.73539 23.681 -9.10083 -3.30189 39.1615 -0.0 -0.0 -0.0 0.0 -0.0 32.6507 21.0997 -6.40648 -38.3133 0.362961 -5.7607 16.8343 -27.3097 2.47873 27.8514 -0.0 -0.0 0.0 0.0 0.0 
500.400998809 716.943 -1204.03854011 174.322675093 -39.6545428681 173.254078878 -3.89942 0.909512 2.76863 -3.89545 0.731566 2.82084 -3.85156 -0.0732371 2.91316 -3.8632 0.387566 2.88822 7.45012 8.17384 -2.61531 7.89593 16.065 -2.92753 -0.0 0.0 -0.0 3.833 -13.578 6.4791 15.8282 -5.34194 58.536 2.5633 -51.7697 1.24399 15.3625 0.283231 -1.93612 1.00003 -9.30309 2.8012 -0.0 0.0 -0.0 12.4936 21.2489 -24.976 -17.0468 2.58523 -72.6753 0.341174 9.59298 -0.0286282 7.59159 -0.204961 0.947373 -2.29435 4.74697 17.7522 0.0 0.0 0.0 -13.0087 29.3916 7.73937 -5.2899 0.181371 0.791295 19.8264 -10.8503 -2.84784 39.0009 -0.0 -0.0 -0.0 0.0 -0.0 32.6316 19.791 -8.63923 -26.1622 -0.171829 -3.97642 18.3676 -26.0343 2.66781 30.7287 -0.0 -0.0 0.0 0.0 0.0 
